<?xml version="1.0" encoding="UTF-8" standalone="no"?>
<svg
   xmlns:dc="http://purl.org/dc/elements/1.1/"
   xmlns:cc="http://creativecommons.org/ns#"
   xmlns:rdf="http://www.w3.org/1999/02/22-rdf-syntax-ns#"
   xmlns:svg="http://www.w3.org/2000/svg"
   xmlns="http://www.w3.org/2000/svg"
   xmlns:sodipodi="http://sodipodi.sourceforge.net/DTD/sodipodi-0.dtd"
   xmlns:inkscape="http://www.inkscape.org/namespaces/inkscape"
   width="59.53125mm"
   height="59.53125mm"
   viewBox="0 0 59.53125 59.53125"
   version="1.1"
   id="svg8"
   inkscape:version="1.0.2 (e86c8708, 2021-01-15)"
   sodipodi:docname="chickfil.svg">
  <defs
     id="defs2" />
  <sodipodi:namedview
     id="base"
     pagecolor="#ffffff"
     bordercolor="#666666"
     borderopacity="1.0"
     inkscape:pageopacity="0.0"
     inkscape:pageshadow="2"
     inkscape:zoom="0.35"
     inkscape:cx="166.78572"
     inkscape:cy="221.07143"
     inkscape:document-units="mm"
     inkscape:current-layer="layer1"
     inkscape:document-rotation="0"
     showgrid="false"
     fit-margin-top="0"
     fit-margin-left="0"
     fit-margin-right="0"
     fit-margin-bottom="0"
     inkscape:window-width="1252"
     inkscape:window-height="790"
     inkscape:window-x="0"
     inkscape:window-y="25"
     inkscape:window-maximized="0" />
  <metadata
     id="metadata5">
    <rdf:RDF>
      <cc:Work
         rdf:about="">
        <dc:format>image/svg+xml</dc:format>
        <dc:type
           rdf:resource="http://purl.org/dc/dcmitype/StillImage" />
        <dc:title></dc:title>
      </cc:Work>
    </rdf:RDF>
  </metadata>
  <g
     inkscape:label="Layer 1"
     inkscape:groupmode="layer"
     id="layer1"
     transform="translate(-61.704613,-89.67485)">
    <path
       style="fill:#ff0000;stroke-width:0.264583"
       d="m 92.913342,132.09692 c -0.222017,-0.42934 -0.403669,-0.98551 -0.403669,-1.23594 0,-0.25043 -0.195027,-0.67083 -0.43339,-0.93422 -0.3076,-0.33989 -0.35432,-0.57632 -0.160968,-0.81458 0.149834,-0.18463 0.416457,-1.05007 0.5925,-1.92319 0.497047,-2.46524 1.322499,-3.57188 2.664291,-3.57188 1.184899,0 0.828334,2.49561 -0.586862,4.10742 -0.77398,0.88152 -0.775343,0.8889 -0.218831,1.18674 0.811823,0.43447 1.747337,-0.26849 2.1512,-1.61646 0.284607,-0.94994 0.8397,-1.56409 1.141187,-1.2626 0.05457,0.0546 -0.03117,0.66903 -0.190537,1.36547 -0.244856,1.07003 -0.224178,1.33182 0.133435,1.68943 0.786775,0.78678 1.257975,0.25079 1.257975,-1.43093 0,-1.83637 0.66771,-3.26401 1.698977,-3.6326 1.48265,-0.52993 1.59648,1.85073 0.19621,4.10331 l -0.812527,1.30708 0.685757,0.17211 c 0.52258,0.13116 0.78968,0.0344 1.12245,-0.4068 0.52988,-0.70249 0.91158,-0.44314 0.49979,0.3396 -0.53917,1.02488 -1.95494,1.33405 -2.592297,0.56608 -0.23592,-0.28427 -0.45715,-0.32046 -0.80875,-0.13229 -0.76982,0.41199 -1.535288,0.30238 -1.837976,-0.2632 -0.550066,-1.0278 -2.09703,0.0563 -1.923754,1.34822 0.24551,1.83041 -1.366605,2.60097 -2.174211,1.03923 z m 1.599809,-0.36439 c 0.271168,-0.70666 -0.603436,-2.27681 -1.275874,-2.29054 -0.28698,-0.006 -0.243652,0.84562 0.09203,1.80856 0.296682,0.85107 0.941475,1.11358 1.183844,0.48198 z m 5.896349,-4.34511 c 0.7788,-1.53848 0.97008,-2.71198 0.44207,-2.71198 -0.5392,0 -1.198147,1.52322 -1.198147,2.76963 0,1.18456 0.13238,1.17447 0.756077,-0.0577 z m -6.075327,-0.55233 c 1.108948,-1.72814 1.090621,-3.25842 -0.02349,-1.96121 -0.645536,0.75163 -1.419,3.24115 -1.006983,3.24115 0.115025,0 0.578737,-0.57597 1.030468,-1.27994 z m 7.435917,4.90157 c 0,-0.19092 0.36439,-0.61652 0.80975,-0.9458 0.60193,-0.44502 0.73833,-0.68473 0.53146,-0.93399 -0.35146,-0.42349 -0.0996,-0.68351 0.66191,-0.68351 1.08871,0 2.46309,-2.22461 2.13463,-3.45518 -0.32124,-1.20352 0.0869,-2.36565 0.83074,-2.36565 1.11094,0 1.44247,1.24881 0.7084,2.66836 -0.73563,1.42255 1.06644,3.64877 1.88347,2.32678 0.22499,-0.36404 0.9063,-0.27251 0.9063,0.12176 0,0.19492 -0.32703,0.50342 -0.72674,0.68553 l -0.72674,0.33113 0.62376,0.50509 c 0.34307,0.2778 0.78917,0.5051 0.99133,0.5051 0.47934,0 0.47537,0.5044 -0.005,0.6889 -0.41528,0.15936 -1.7484,-0.45387 -2.21876,-1.02062 -0.59093,-0.71202 -3.29446,-0.14461 -4.58848,0.96302 -1.15576,0.98929 -1.8156,1.21064 -1.8156,0.60908 z m 5.22552,-2.55969 c 0.43225,-0.005 0.40639,-0.27864 -0.0878,-0.92965 -0.39748,-0.52361 -0.40705,-0.52223 -0.91175,0.13229 -0.67356,0.8735 -0.65202,1.15495 0.0735,0.96051 0.32742,-0.0877 0.74414,-0.16116 0.92604,-0.16315 z m 0.11018,-4.34179 c 0.0485,-0.27594 -0.0606,-0.55375 -0.24247,-0.61736 -0.22092,-0.0772 -0.33073,0.17282 -0.33073,0.75308 0,0.90034 0.40793,0.80375 0.5732,-0.13572 z m -37.346297,6.256 c -1.760095,-0.88307 -2.70273,-3.61108 -2.167929,-6.27405 0.850337,-4.23414 4.184747,-7.51774 6.612785,-6.51201 3.023474,1.25236 1.059573,8.75157 -2.291872,8.75157 -1.547998,0 -2.159683,-2.16712 -1.101538,-3.9026 0.856689,-1.40507 1.482805,-0.9687 0.664359,0.46302 -1.220067,2.13428 0.395778,3.56338 1.927692,1.70491 1.422352,-1.72557 1.878439,-4.91024 0.850433,-5.93824 -1.912754,-1.91276 -5.547763,2.34387 -5.76159,6.74687 -0.198568,4.0888 2.487897,5.7224 5.768456,3.50772 0.789917,-0.53327 0.91857,-0.79828 1.200154,-2.47212 0.387311,-2.30233 0.723028,-2.96305 1.619909,-3.18816 1.250054,-0.31374 1.704058,0.79571 1.00766,2.46243 -0.297864,0.71289 -0.323746,1.04469 -0.102301,1.31152 0.174847,0.21067 0.226547,0.72975 0.126042,1.2655 -0.387907,2.06771 0.906325,1.19396 1.559486,-1.05284 0.262998,-0.90468 0.550915,-1.42949 0.746328,-1.3604 0.334047,0.11809 0.342458,0.34556 0.06075,1.64302 -0.234149,1.07843 0.399973,1.99563 1.022512,1.47897 0.234028,-0.19423 0.425506,-0.688 0.425506,-1.09727 0,-1.79231 1.286812,-3.21639 2.378448,-2.63216 0.685118,0.36666 0.687464,2.25046 0.0028,2.25046 -0.277191,0 -0.371218,-0.21942 -0.311794,-0.72761 0.102699,-0.87827 -0.300759,-0.94346 -0.863828,-0.13956 -0.527221,0.75271 -0.525626,1.64166 0.0039,2.17119 1.232058,1.23205 2.894619,-0.53945 3.159544,-3.36659 0.144534,-1.54239 0.2868,-2.03847 0.584599,-2.03847 0.297916,0 0.369668,0.25076 0.295193,1.03168 -0.09786,1.02614 -0.09387,1.03096 0.740349,0.89558 1.549086,-0.25138 1.867173,1.57446 0.500198,2.87116 -0.762164,0.72299 -0.842238,1.16374 -0.252532,1.39003 0.46908,0.18 1.436042,-0.25196 1.436042,-0.64151 0,-0.1404 0.119063,-0.25528 0.264583,-0.25528 0.376013,0 0.327422,0.60668 -0.09484,1.18416 -0.509744,0.69711 -1.974734,0.65153 -2.566988,-0.0799 l -0.462701,-0.57141 -0.282974,0.81174 c -0.321269,0.9216 -0.825829,0.80881 -0.825829,-0.18461 0,-0.63006 -0.0274,-0.64166 -0.588038,-0.24897 -0.688188,0.48203 -1.607835,0.52971 -2.368178,0.12279 -0.390652,-0.20908 -0.620202,-0.20908 -0.829273,0 -0.443274,0.44327 -1.449405,0.34355 -1.738071,-0.17227 -0.238766,-0.42665 -0.307637,-0.4149 -0.915585,0.15624 -1.023576,0.9616 -1.614896,0.67766 -1.711289,-0.82174 -0.126726,-1.97122 -1.28036,-1.53841 -1.56548,0.58732 -0.150813,1.12439 -0.56085,1.4187 -0.784583,0.56315 -0.127261,-0.48665 -0.183237,-0.4818 -1.496584,0.12971 -1.623881,0.75609 -2.628248,0.80198 -3.873932,0.177 z m 18.23306,-2.87954 c 0.656669,-0.83482 0.685228,-1.11904 0.133709,-1.33067 -0.546414,-0.20968 -0.86066,0.13618 -1.06866,1.17618 -0.209857,1.04928 0.180383,1.11376 0.934951,0.15449 z m -10.603578,-1.86516 c 0.423646,-0.80529 0.380368,-1.67104 -0.08353,-1.67104 -0.529321,0 -0.91068,0.79306 -1.108134,2.30444 l -0.165585,1.26744 0.526612,-0.66146 c 0.289636,-0.3638 0.663425,-0.92152 0.830642,-1.23938 z m 12.670593,1.34691 c -0.334444,-0.33444 0.09293,-0.6367 0.900268,-0.6367 0.521676,0 0.762386,0.11512 0.691584,0.33073 -0.119891,0.36512 -1.304925,0.5929 -1.591852,0.30597 z m 12.945242,-0.0193 c -0.3793,-0.3793 -0.14124,-0.61736 0.61736,-0.61736 0.52917,0 0.79375,0.1323 0.79375,0.39688 0,0.40046 -1.06477,0.56683 -1.41111,0.22048 z m -22.665971,-2.07256 c 0,-0.21829 0.178594,-0.39688 0.396875,-0.39688 0.218282,0 0.396875,0.17859 0.396875,0.39688 0,0.21828 -0.178593,0.39687 -0.396875,0.39687 -0.218281,0 -0.396875,-0.17859 -0.396875,-0.39687 z m 16.98008,-0.54315 c 0.119663,-0.5747 0.589234,-0.60987 0.696634,-0.0522 0.0558,0.28962 -0.074,0.46302 -0.346505,0.46302 -0.254193,0 -0.400042,-0.17114 -0.350129,-0.41085 z m -21.113506,-3.06529 c 0.226003,-1.13001 0.295909,-1.17005 1.110745,-0.63615 0.747646,0.48988 0.674743,0.65335 -0.518188,1.16192 l -0.762745,0.32518 z m -2.891056,-0.51372 c -0.100035,-0.16186 0.0108,-0.48697 0.246301,-0.72247 0.39452,-0.39452 0.428181,-0.38335 0.428181,0.14207 0,0.65976 -0.408292,1.0111 -0.674482,0.5804 z m 2.702758,-2.93355 c -0.694341,-0.38857 -0.540811,-1.64483 0.31268,-2.55849 1.373632,-1.47048 3.006195,-1.4081 3.161348,0.12079 0.138158,1.36141 -2.317815,3.08475 -3.474028,2.4377 z m -6.473276,-0.53788 c -0.506958,-0.50696 -0.385377,-1.27 0.202358,-1.27 0.494739,0 1.067642,0.70055 1.067642,1.30553 0,0.38232 -0.876672,0.3578 -1.27,-0.0355 z m 1.5412,-1.18939 c -0.767178,-0.97531 -0.632932,-2.06498 0.254402,-2.06498 0.79399,0 1.456317,1.16646 1.212936,2.13617 -0.211121,0.84117 -0.771042,0.81401 -1.467338,-0.0712 z m 2.216257,-0.22263 c -0.1982,-0.78969 0.03773,-2.17192 0.456928,-2.67703 0.67031,-0.80767 1.818115,-0.10816 1.818115,1.10803 0,1.7599 -1.898511,3.06922 -2.275043,1.569 z"
       id="path24" />
  </g>
</svg>
