<?xml version="1.0" encoding="UTF-8" standalone="no"?>
<svg
   xmlns:dc="http://purl.org/dc/elements/1.1/"
   xmlns:cc="http://creativecommons.org/ns#"
   xmlns:rdf="http://www.w3.org/1999/02/22-rdf-syntax-ns#"
   xmlns:svg="http://www.w3.org/2000/svg"
   xmlns="http://www.w3.org/2000/svg"
   xmlns:sodipodi="http://sodipodi.sourceforge.net/DTD/sodipodi-0.dtd"
   xmlns:inkscape="http://www.inkscape.org/namespaces/inkscape"
   width="79.375mm"
   height="44.450001mm"
   viewBox="0 0 79.375 44.450001"
   version="1.1"
   id="svg8"
   inkscape:version="1.0.2 (e86c8708, 2021-01-15)"
   sodipodi:docname="mcdonalds.svg">
  <defs
     id="defs2" />
  <sodipodi:namedview
     id="base"
     pagecolor="#ffffff"
     bordercolor="#666666"
     borderopacity="1.0"
     inkscape:pageopacity="0.0"
     inkscape:pageshadow="2"
     inkscape:zoom="0.35"
     inkscape:cx="181.42857"
     inkscape:cy="195.42856"
     inkscape:document-units="mm"
     inkscape:current-layer="layer1"
     inkscape:document-rotation="0"
     showgrid="false"
     fit-margin-top="0"
     fit-margin-left="0"
     fit-margin-right="0"
     fit-margin-bottom="0"
     inkscape:window-width="1252"
     inkscape:window-height="791"
     inkscape:window-x="0"
     inkscape:window-y="25"
     inkscape:window-maximized="0" />
  <metadata
     id="metadata5">
    <rdf:RDF>
      <cc:Work
         rdf:about="">
        <dc:format>image/svg+xml</dc:format>
        <dc:type
           rdf:resource="http://purl.org/dc/dcmitype/StillImage" />
        <dc:title></dc:title>
      </cc:Work>
    </rdf:RDF>
  </metadata>
  <g
     inkscape:label="Layer 1"
     inkscape:groupmode="layer"
     id="layer1"
     transform="translate(-57.830357,-96.459526)">
    <g
       id="g24"
       transform="translate(-1.5119019,0.75595234)">
      <path
         style="fill:#fefefd;stroke-width:0.264583"
         d="M 57.830357,118.68453 V 96.459526 h 39.6875 39.687503 v 22.225004 22.225 h -39.687503 -39.6875 z m 21.207967,15.47812 c 0.731974,-26.77565 6.358634,-41.946455 11.04725,-29.78599 2.381226,6.17599 4.201289,19.8585 4.252526,31.9688 l 0.0048,1.12448 h 3.175 3.175 l 1.5e-4,-2.05052 c 0.001,-18.05642 3.78681,-35.25573 7.75957,-35.25573 3.70123,0 7.0404,14.48829 7.47001,32.41146 0.0767,3.20146 0.20107,6.32685 0.27631,6.94531 l 0.1368,1.12448 h 3.15878 3.15879 l -0.003,-2.57968 c -0.0189,-18.61876 -5.42185,-37.31551 -11.73519,-40.60907 -4.53983,-2.368348 -9.63101,2.325922 -12.62115,11.63719 -0.669165,2.08377 -0.887095,2.30658 -1.16455,1.19063 -0.442079,-1.7781 -2.356739,-6.20506 -3.46484,-8.0112 -9.169996,-14.94655 -19.968444,2.22441 -21.183301,33.68425 l -0.181683,4.70483 3.28241,-0.0746 3.282409,-0.0746 z"
         id="path54" />
      <path
         style="fill:#fefbf4;stroke-width:0.264583"
         d="m 116.09027,138.92515 c 0.005,-0.43656 0.0647,-0.58312 0.13177,-0.32569 0.0671,0.25743 0.0627,0.61462 -0.01,0.79375 -0.0725,0.17913 -0.12736,-0.0315 -0.12197,-0.46806 z"
         id="path52" />
      <path
         style="fill:#fef9ee;stroke-width:0.264583"
         d="m 74.178746,140.44878 c 0.915208,-0.0518 2.343958,-0.0514 3.175,0.001 0.831042,0.0523 0.08224,0.0947 -1.664014,0.0942 -1.74625,-5.2e-4 -2.426194,-0.0433 -1.510986,-0.0951 z m 41.901724,-2.71425 c 0,-0.36381 0.06,-0.51263 0.13345,-0.33073 0.0734,0.1819 0.0734,0.47956 0,0.66146 -0.0734,0.1819 -0.13345,0.0331 -0.13345,-0.33073 z"
         id="path50" />
      <path
         style="fill:#fef5e2;stroke-width:0.264583"
         d="m 117.835,140.44878 c 0.9152,-0.0518 2.34395,-0.0514 3.175,0.001 0.83104,0.0523 0.0822,0.0947 -1.66402,0.0942 -1.74625,-5.2e-4 -2.42619,-0.0433 -1.51098,-0.0951 z m -1.77542,-3.66234 c 0.0127,-0.30823 0.0754,-0.37092 0.15985,-0.15986 0.0764,0.191 0.067,0.4192 -0.0209,0.50712 -0.0879,0.0879 -0.15045,-0.0684 -0.13896,-0.34726 z"
         id="path48" />
      <path
         style="fill:#fef1d6;stroke-width:0.264583"
         d="m 78.811726,139.05744 c 0,-0.80036 0.0496,-1.12778 0.110223,-0.7276 0.06062,0.40018 0.06062,1.05503 0,1.45521 -0.06062,0.40018 -0.110223,0.0728 -0.110223,-0.72761 z m 37.268744,-3.175 c 0,-0.3638 0.06,-0.51263 0.13345,-0.33073 0.0734,0.18191 0.0734,0.47956 0,0.66146 -0.0734,0.1819 -0.13345,0.0331 -0.13345,-0.33073 z"
         id="path46" />
      <path
         style="fill:#feecc6;stroke-width:0.264583"
         d="m 78.774217,137.20536 c 0,-0.3638 0.06005,-0.51263 0.133452,-0.33073 0.0734,0.1819 0.0734,0.47956 0,0.66146 -0.0734,0.1819 -0.133452,0.0331 -0.133452,-0.33073 z m 7.581531,-40.397408 c 0.190994,-0.07643 0.419198,-0.06703 0.507119,0.02089 0.08792,0.08792 -0.06835,0.150453 -0.347266,0.138964 -0.308226,-0.0127 -0.370919,-0.07539 -0.159853,-0.159852 z m 21.960412,0 c 0.191,-0.07643 0.4192,-0.06703 0.50712,0.02089 0.0879,0.08792 -0.0683,0.150453 -0.34726,0.138964 -0.30823,-0.0127 -0.37092,-0.07539 -0.15986,-0.159852 z"
         id="path44" />
      <path
         style="fill:#fee7b7;stroke-width:0.264583"
         d="m 72.403328,137.3156 c 0.01269,-0.30822 0.07539,-0.37092 0.159853,-0.15985 0.07643,0.191 0.06703,0.4192 -0.02089,0.50712 -0.08792,0.0879 -0.150453,-0.0684 -0.138963,-0.34727 z m 6.370889,-1.16857 c 0,-0.36381 0.06005,-0.51263 0.133452,-0.33073 0.0734,0.1819 0.0734,0.47956 0,0.66146 -0.0734,0.1819 -0.133452,0.0331 -0.133452,-0.33073 z m 37.285363,-1.74184 c 0.0127,-0.30823 0.0754,-0.37092 0.15985,-0.15986 0.0764,0.191 0.067,0.4192 -0.0209,0.50712 -0.0879,0.0879 -0.15045,-0.0684 -0.13896,-0.34726 z"
         id="path42" />
      <path
         style="fill:#fee3a9;stroke-width:0.264583"
         d="m 72.434021,138.39599 c 0.0054,-0.43657 0.06469,-0.58313 0.131773,-0.3257 0.06708,0.25743 0.06267,0.61462 -0.0098,0.79375 -0.07248,0.17913 -0.127363,-0.0315 -0.12197,-0.46805 z m 23.440559,-1.12221 c 0.915207,-0.0518 2.343957,-0.0514 3.175,0.001 0.831041,0.0523 0.08223,0.0947 -1.664015,0.0942 -1.74625,-5.2e-4 -2.426194,-0.0433 -1.510985,-0.0952 z"
         id="path40" />
      <path
         style="fill:#fee09f;stroke-width:0.264583"
         d="m 72.424217,139.58661 c 0,-0.3638 0.06005,-0.51263 0.133452,-0.33073 0.0734,0.1819 0.0734,0.47956 0,0.66146 -0.0734,0.1819 -0.133452,0.0331 -0.133452,-0.33073 z"
         id="path38" />
      <path
         style="fill:#fed988;stroke-width:0.264583"
         d="m 122.43047,137.99911 c 0,-0.3638 0.0601,-0.51263 0.13345,-0.33073 0.0734,0.1819 0.0734,0.47956 0,0.66146 -0.0734,0.1819 -0.13345,0.0331 -0.13345,-0.33073 z"
         id="path36" />
      <path
         style="fill:#fed679;stroke-width:0.264583"
         d="m 122.45007,139.32203 c 0,-0.50933 0.0545,-0.71769 0.12101,-0.46302 0.0665,0.25466 0.0665,0.67138 0,0.92604 -0.0666,0.25466 -0.12101,0.0463 -0.12101,-0.46302 z"
         id="path34" />
      <path
         style="fill:#fed168;stroke-width:0.264583"
         d="m 100.47005,136.41161 c 0,-0.3638 0.0601,-0.51263 0.13345,-0.33073 0.0734,0.1819 0.0734,0.47956 0,0.66146 -0.0734,0.1819 -0.13345,0.0331 -0.13345,-0.33073 z"
         id="path32" />
      <path
         style="fill:#fece55;stroke-width:0.264583"
         d="m 100.47005,135.08869 c 0,-0.3638 0.0601,-0.51263 0.13345,-0.33073 0.0734,0.18191 0.0734,0.47956 0,0.66146 -0.0734,0.1819 -0.13345,0.0331 -0.13345,-0.33073 z"
         id="path30" />
      <path
         style="fill:#fec100;stroke-width:0.264583"
         d="m 72.833917,136.87466 c 0.03003,-1.78265 0.12151,-4.01508 0.203286,-4.96097 0.08178,-0.94588 0.215868,-2.61276 0.297983,-3.70416 0.212744,-2.82764 0.29859,-3.54354 0.745583,-6.21771 0.218916,-1.30969 0.469328,-2.8575 0.55647,-3.43959 0.228681,-1.52752 0.301179,-1.85371 1.014381,-4.56406 0.354205,-1.34607 0.582401,-2.44739 0.507101,-2.44739 -0.0753,0 -0.01912,-0.14883 0.124854,-0.33073 0.14397,-0.1819 0.532966,-1.16417 0.864436,-2.18282 0.33147,-1.01864 0.872472,-2.46794 1.202226,-3.22066 0.329754,-0.75272 0.530805,-1.43733 0.446781,-1.52136 -0.08402,-0.084 -0.0068,-0.15277 0.171523,-0.15277 0.178363,0 0.250711,-0.11906 0.160774,-0.26458 -0.08994,-0.14552 -0.05188,-0.26458 0.08458,-0.26458 0.136454,0 0.406343,-0.38696 0.599754,-0.8599 0.19341,-0.47294 0.475745,-1.00447 0.627412,-1.18118 0.151666,-0.17671 0.871069,-1.01838 1.598673,-1.870383 2.733776,-3.201174 5.819571,-3.288027 9.110237,-0.256417 0.59192,0.545324 1.076221,1.10495 1.076221,1.24362 0,0.13867 0.148828,0.34734 0.330729,0.46371 0.405091,0.25916 2.067942,3.39129 2.851452,5.37096 0.316767,0.80037 0.702651,1.75287 0.85752,2.11667 0.154871,0.3638 0.306443,0.75075 0.336828,0.8599 0.03038,0.10914 0.07897,0.2282 0.107976,0.26458 0.029,0.0364 0.104804,0.3638 0.168445,0.7276 0.337042,1.92672 0.789633,1.83551 1.312915,-0.26458 0.01812,-0.0728 0.121147,-0.33135 0.228928,-0.57465 0.107781,-0.2433 0.226571,-0.60049 0.263978,-0.79375 0.03741,-0.19327 0.222951,-0.70858 0.412316,-1.14514 3.374101,-7.778594 6.119071,-10.699022 9.733151,-10.355289 2.05217,0.195182 2.18118,0.223423 2.18118,0.477509 0,0.121267 0.10339,0.220486 0.22977,0.220486 0.22118,0 2.68064,2.343294 2.68064,2.554024 0,0.17986 1.4405,2.3337 1.67377,2.50264 0.12293,0.089 0.21671,0.20809 0.20839,0.26458 -0.0568,0.38549 0.34618,1.29334 0.57405,1.29334 0.1528,0 0.20319,0.0746 0.11199,0.16584 -0.0912,0.0912 0.0313,0.53769 0.27219,0.99218 0.24092,0.4545 0.46247,0.94542 0.49234,1.09094 0.0299,0.14552 0.20499,0.62177 0.38914,1.05833 0.18416,0.43656 0.35969,0.88305 0.39008,0.99219 0.0304,0.10914 0.085,0.25797 0.12139,0.33073 0.0931,0.18616 0.14514,0.39432 0.38123,1.52427 0.11436,0.54731 0.31543,1.06156 0.44683,1.14277 0.1314,0.0812 0.18296,0.23816 0.11459,0.34878 -0.0684,0.11062 0.0568,0.78701 0.27808,1.50307 0.22131,0.71607 0.44454,1.5996 0.49607,1.9634 0.0804,0.56775 0.3993,2.34494 1.353,7.54062 0.10685,0.58209 0.17634,1.14128 0.15444,1.24266 -0.0219,0.10138 0.0787,1.11341 0.22367,2.24896 0.32155,2.5195 0.46412,4.58179 0.65796,9.51777 l 0.14891,3.79166 h -2.87984 -2.87985 l -0.16666,-4.43177 c -0.25183,-6.6966 -0.42579,-9.48592 -0.84566,-13.5599 -0.0825,-0.80036 -0.15601,-1.6338 -0.16339,-1.85208 -0.0631,-1.86736 -1.56312,-10.76659 -2.00686,-11.90625 -0.085,-0.21828 -0.19755,-0.635 -0.25014,-0.92605 -0.0526,-0.29104 -0.17325,-0.70776 -0.26813,-0.92604 -0.0949,-0.21828 -0.19767,-0.48617 -0.22843,-0.59531 -0.0308,-0.10914 -0.0857,-0.25797 -0.12207,-0.33073 -0.0364,-0.0728 -0.0959,-0.25135 -0.13229,-0.39687 -0.0364,-0.14552 -0.0959,-0.32412 -0.1323,-0.39688 -0.0364,-0.0728 -0.0907,-0.22159 -0.12079,-0.33073 -0.37509,-1.36212 -0.50656,-1.65364 -0.74574,-1.65364 -0.154,0 -0.20532,-0.0747 -0.11405,-0.16595 0.30502,-0.30502 -1.36385,-2.40044 -2.18154,-2.739139 -0.64403,-0.266765 -0.88724,-0.267802 -1.20374,-0.0051 -0.21815,0.181049 -0.39664,0.245909 -0.39664,0.144139 0,-0.101774 -0.35718,0.17214 -0.79375,0.6087 -0.43656,0.43657 -0.79375,0.92198 -0.79375,1.07869 0,0.15672 -0.10462,0.28494 -0.23248,0.28494 -0.18671,0 -0.86172,1.27699 -0.979,1.85208 -0.0148,0.0728 -0.21683,0.55642 -0.44887,1.0748 -0.80315,1.79422 -2.78381,10.70881 -2.45284,11.03978 0.0609,0.0609 0.008,0.3805 -0.11732,0.71029 -0.12539,0.32979 -0.30693,1.47841 -0.40343,2.55248 -0.0965,1.07407 -0.22882,2.48864 -0.29404,3.14348 -0.35367,3.55109 -0.6078,8.7099 -0.62156,12.61784 l -0.007,1.90221 -3.02052,0.0822 -3.020523,0.0822 0.04396,-3.57188 c 0.05325,-4.32592 -0.24036,-9.65565 -0.757917,-13.75833 -0.211114,-1.67349 -0.442571,-3.51127 -0.51435,-4.08396 -0.273677,-2.18351 -1.00866,-5.8501 -1.228148,-6.12684 -0.126037,-0.15891 -0.158734,-0.35935 -0.07267,-0.44542 0.08607,-0.0861 0.06091,-0.31115 -0.05591,-0.50017 -0.116824,-0.18903 -0.22716,-0.52437 -0.245194,-0.74521 -0.05095,-0.6239 -0.693132,-2.48096 -0.985184,-2.84892 -0.144373,-0.1819 -0.184201,-0.33073 -0.0885,-0.33073 0.0957,0 0.02545,-0.26789 -0.156107,-0.59531 -0.181557,-0.32742 -0.3078,-0.67564 -0.28054,-0.77381 0.119062,-0.42878 -1.739257,-2.74536 -2.569342,-3.20293 -1.02924,-0.567356 -2.486422,-0.158022 -2.852698,0.80134 -0.09731,0.25488 -0.387178,0.68981 -0.644155,0.96651 -0.256976,0.2767 -0.404789,0.60412 -0.328473,0.7276 0.07632,0.12348 0.03173,0.22452 -0.09909,0.22452 -0.192133,0 -0.967917,1.87143 -0.987124,2.38125 -0.0027,0.0728 -0.08177,0.25246 -0.175623,0.39933 -0.204112,0.31942 -0.993439,3.31358 -1.178257,4.46949 -0.172718,1.08023 -0.292135,1.6623 -0.602426,2.93638 -0.141761,0.58209 -0.322444,1.7511 -0.401518,2.59782 -0.07907,0.84671 -0.195665,1.62344 -0.259091,1.72607 -0.06343,0.10262 -0.186445,1.12105 -0.273376,2.26318 -0.08693,1.14213 -0.206482,2.15495 -0.265667,2.25071 -0.153407,0.24822 -0.45762,5.37413 -0.845538,14.24712 l -0.176402,4.0349 -2.804283,3e-5 -2.804284,3e-5 z"
         id="path28" />
      <path
         style="fill:#febd00;stroke-width:0.264583"
         d="m 75.481817,140.18294 2.967085,-0.0843 0.08639,-2.57111 0.08639,-2.57111 0.05537,2.71198 0.05537,2.71198 -3.108854,-0.0566 -3.108854,-0.0566 z m 40.878663,-3.17602 0.0572,-3.37343 0.0832,3.23255 0.0832,3.23256 2.96848,0.0843 2.96849,0.0843 -3.10885,0.0566 -3.10886,0.0566 z M 72.743658,136.5439 c 6.88e-4,-1.45521 0.04512,-2.01676 0.09874,-1.2479 0.05362,0.76886 0.05305,1.95949 -0.0012,2.64583 -0.05431,0.68635 -0.09818,0.0573 -0.09749,-1.39793 z m 23.252845,0.46594 c 0.836745,-0.0525 2.205963,-0.0525 3.042708,0 0.836745,0.0525 0.152136,0.0955 -1.521354,0.0955 -1.67349,0 -2.358099,-0.043 -1.521354,-0.0955 z m 26.214427,-2.05344 c 10e-4,-1.01864 0.049,-1.40294 0.10627,-0.85399 0.0573,0.54895 0.0563,1.38238 -0.002,1.85208 -0.0584,0.4697 -0.10531,0.0206 -0.10413,-0.99809 z m -27.772691,-2.51354 c 0,-1.38245 0.04459,-1.94799 0.0991,-1.25677 0.0545,0.69122 0.0545,1.82232 0,2.51354 -0.0545,0.69122 -0.0991,0.12568 -0.0991,-1.25677 z m 6.078991,-1.85208 c 0,-1.09141 0.0467,-1.53789 0.10378,-0.99219 0.0571,0.5457 0.0571,1.43867 0,1.98437 -0.0571,0.54571 -0.10378,0.0992 -0.10378,-0.99218 z m -27.53356,0.26458 c 0,-0.65484 0.0516,-0.92273 0.114662,-0.59531 0.06306,0.32742 0.06306,0.8632 0,1.19062 -0.06306,0.32742 -0.114662,0.0595 -0.114662,-0.59531 z m 5.828056,-0.79375 c 0,-0.80036 0.0496,-1.12779 0.110223,-0.7276 0.06062,0.40018 0.06062,1.05502 0,1.4552 -0.06062,0.40019 -0.110223,0.0728 -0.110223,-0.7276 z m 43.109184,0.26458 c 0,-0.50932 0.0544,-0.71768 0.121,-0.46302 0.0665,0.25466 0.0665,0.67138 0,0.92604 -0.0666,0.25467 -0.121,0.0463 -0.121,-0.46302 z m -5.80293,-1.05833 c 0,-0.80036 0.0496,-1.12779 0.11022,-0.7276 0.0606,0.40018 0.0606,1.05502 0,1.4552 -0.0606,0.40019 -0.11022,0.0728 -0.11022,-0.7276 z m -42.890209,-1.45521 c 0.0054,-0.43656 0.06469,-0.58312 0.131773,-0.32569 0.06708,0.25743 0.06267,0.61462 -0.0098,0.79375 -0.07248,0.17913 -0.127363,-0.0315 -0.12197,-0.46806 z m 48.418749,-0.52916 c 0.005,-0.43657 0.0647,-0.58313 0.13177,-0.3257 0.0671,0.25743 0.0627,0.61462 -0.01,0.79375 -0.0725,0.17913 -0.12736,-0.0315 -0.12197,-0.46805 z m -27.496184,-0.92605 c 0,-0.65484 0.0516,-0.92273 0.114662,-0.59531 0.06307,0.32742 0.06307,0.8632 0,1.19063 -0.06306,0.32742 -0.114662,0.0595 -0.114662,-0.59532 z m -15.086589,-0.66146 c 0.0029,-0.58208 0.05712,-0.78905 0.120406,-0.45993 0.06329,0.32912 0.06088,0.80537 -0.0053,1.05833 -0.06622,0.25297 -0.118004,-0.0163 -0.115067,-0.5984 z m 21.701173,-0.13229 c 0,-0.65484 0.0516,-0.92273 0.11466,-0.59531 0.0631,0.32742 0.0631,0.8632 0,1.19063 -0.0631,0.32742 -0.11466,0.0595 -0.11466,-0.59532 z m 15.07057,-0.26458 c 0,-0.50932 0.0545,-0.71768 0.121,-0.46302 0.0665,0.25466 0.0665,0.67138 0,0.92604 -0.0666,0.25466 -0.121,0.0463 -0.121,-0.46302 z m -42.35294,0 c 0,-0.3638 0.06005,-0.51263 0.133452,-0.33073 0.0734,0.1819 0.0734,0.47956 0,0.66146 -0.0734,0.1819 -0.133452,0.0331 -0.133452,-0.33073 z m 47.88958,-0.26458 c 0,-0.36381 0.0601,-0.51263 0.13346,-0.33073 0.0734,0.1819 0.0734,0.47955 0,0.66146 -0.0734,0.1819 -0.13346,0.0331 -0.13346,-0.33073 z m -47.624997,-1.85209 c 0,-0.3638 0.06005,-0.51263 0.133453,-0.33073 0.0734,0.18191 0.0734,0.47956 0,0.66146 -0.0734,0.1819 -0.133453,0.0331 -0.133453,-0.33073 z m 20.127941,-0.26458 c 0,-0.50932 0.05445,-0.71768 0.121002,-0.46302 0.06655,0.25466 0.06655,0.67138 0,0.92604 -0.06655,0.25466 -0.121002,0.0463 -0.121002,-0.46302 z m -14.552083,-0.26458 c 0,-0.50933 0.05445,-0.71769 0.121,-0.46302 0.06655,0.25466 0.06655,0.67138 0,0.92604 -0.06655,0.25466 -0.121,0.0463 -0.121,-0.46302 z m 41.784559,0.26458 c 0,-0.3638 0.06,-0.51263 0.13345,-0.33073 0.0734,0.1819 0.0734,0.47956 0,0.66146 -0.0734,0.1819 -0.13345,0.0331 -0.13345,-0.33073 z m -20.09853,-0.66146 c 0.005,-0.43656 0.0647,-0.58312 0.13177,-0.32569 0.0671,0.25743 0.0627,0.61462 -0.01,0.79375 -0.0725,0.17913 -0.12735,-0.0315 -0.12196,-0.46806 z m 14.55208,0 c 0.005,-0.43656 0.0647,-0.58312 0.13178,-0.32569 0.0671,0.25743 0.0627,0.61462 -0.01,0.79375 -0.0725,0.17913 -0.12735,-0.0315 -0.12196,-0.46806 z m -41.570272,-0.8158 c 0.0127,-0.30822 0.07539,-0.37092 0.159853,-0.15985 0.07643,0.191 0.06703,0.4192 -0.02089,0.50712 -0.08792,0.0879 -0.150453,-0.0683 -0.138963,-0.34727 z m 46.831252,-0.26458 c 0.0127,-0.30822 0.0754,-0.37092 0.15985,-0.15985 0.0764,0.19099 0.067,0.4192 -0.0209,0.50712 -0.0879,0.0879 -0.15045,-0.0684 -0.13896,-0.34727 z m -27.221392,-1.03629 c 0.0054,-0.43656 0.06469,-0.58312 0.131773,-0.32569 0.06708,0.25743 0.06267,0.61462 -0.0098,0.79375 -0.07246,0.17913 -0.12735,-0.0315 -0.121957,-0.46806 z m -14.032721,-0.13229 c 0,-0.3638 0.06005,-0.51263 0.133452,-0.33073 0.0734,0.18191 0.0734,0.47956 0,0.66146 -0.0734,0.1819 -0.133452,0.0331 -0.133452,-0.33073 z m -5.312555,-0.15434 c 0.01269,-0.30822 0.07539,-0.37092 0.159852,-0.15985 0.07643,0.191 0.06703,0.4192 -0.02089,0.50712 -0.08792,0.0879 -0.150453,-0.0684 -0.138964,-0.34727 z m 27.008388,-0.11024 c 0,-0.3638 0.06,-0.51263 0.13345,-0.33073 0.0734,0.1819 0.0734,0.47956 0,0.66146 -0.0734,0.1819 -0.13345,0.0331 -0.13345,-0.33073 z m 14.02292,0 c 0,-0.3638 0.0601,-0.51263 0.13345,-0.33073 0.0734,0.1819 0.0734,0.47956 0,0.66146 -0.0734,0.1819 -0.13345,0.0331 -0.13345,-0.33073 z m 5.27078,-0.15434 c 0.0127,-0.30822 0.0754,-0.37092 0.15985,-0.15985 0.0764,0.19099 0.067,0.4192 -0.0209,0.50712 -0.0879,0.0879 -0.15045,-0.0684 -0.13896,-0.34727 z m -0.26459,-1.32292 c 0.0127,-0.30822 0.0754,-0.37092 0.15985,-0.15985 0.0764,0.191 0.067,0.4192 -0.0209,0.50712 -0.0879,0.0879 -0.15046,-0.0683 -0.13897,-0.34727 z m -40.46036,-0.37482 c 0,-0.36381 0.06005,-0.51263 0.133452,-0.33073 0.0734,0.1819 0.0734,0.47955 0,0.66146 -0.0734,0.1819 -0.133452,0.0331 -0.133452,-0.33073 z m 13.493749,0 c 0,-0.36381 0.06005,-0.51263 0.133453,-0.33073 0.0734,0.1819 0.0734,0.47955 0,0.66146 -0.0734,0.1819 -0.133453,0.0331 -0.133453,-0.33073 z m 8.202081,-0.26459 c 0,-0.3638 0.0601,-0.51263 0.13346,-0.33073 0.0734,0.18191 0.0734,0.47956 0,0.66146 -0.0734,0.1819 -0.13346,0.0331 -0.13346,-0.33073 z m 13.49375,0 c 0,-0.3638 0.0601,-0.51263 0.13346,-0.33073 0.0734,0.18191 0.0734,0.47956 0,0.66146 -0.0734,0.1819 -0.13346,0.0331 -0.13346,-0.33073 z m 5.0062,-0.6835 c 0.0127,-0.30823 0.0754,-0.37092 0.15985,-0.15986 0.0764,0.191 0.067,0.4192 -0.0209,0.50712 -0.0879,0.0879 -0.15045,-0.0684 -0.13896,-0.34726 z m -39.952085,-1.05834 c 0.01269,-0.30822 0.07539,-0.37092 0.159853,-0.15985 0.07643,0.191 0.06703,0.4192 -0.02089,0.50712 -0.08792,0.0879 -0.150453,-0.0684 -0.138965,-0.34727 z m 12.964584,0 c 0.0127,-0.30822 0.07539,-0.37092 0.159851,-0.15985 0.07643,0.191 0.06703,0.4192 -0.02088,0.50712 -0.08792,0.0879 -0.150452,-0.0684 -0.138964,-0.34727 z m 21.716721,-0.11024 c 0,-0.3638 0.0601,-0.51263 0.13345,-0.33073 0.0734,0.1819 0.0734,0.47956 0,0.66146 -0.0734,0.1819 -0.13345,0.0331 -0.13345,-0.33073 z m -12.98547,-0.15434 c 0.0127,-0.30822 0.0754,-0.37092 0.15985,-0.15985 0.0764,0.19099 0.067,0.4192 -0.0209,0.50712 -0.0879,0.0879 -0.15045,-0.0684 -0.13896,-0.34727 z m -21.410363,-1.43316 c 0,-0.3638 0.06005,-0.51263 0.133452,-0.33073 0.0734,0.1819 0.0734,0.47956 0,0.66146 -0.0734,0.1819 -0.133452,0.0331 -0.133452,-0.33073 z m 12.414529,0.11024 c 0.0127,-0.30822 0.07539,-0.37092 0.159851,-0.15985 0.07643,0.191 0.06703,0.4192 -0.02088,0.50712 -0.08792,0.0879 -0.150453,-0.0683 -0.138965,-0.34727 z m 9.260414,-0.26458 c 0.0127,-0.30822 0.0754,-0.37092 0.15985,-0.15985 0.0764,0.19099 0.067,0.4192 -0.0209,0.50712 -0.0879,0.0879 -0.15046,-0.0684 -0.13897,-0.34727 z m 12.43542,0 c 0.0127,-0.30822 0.0754,-0.37092 0.15985,-0.15985 0.0764,0.19099 0.067,0.4192 -0.0209,0.50712 -0.0879,0.0879 -0.15045,-0.0684 -0.13896,-0.34727 z m -33.866668,-1.32292 c 0.01269,-0.30822 0.07539,-0.37092 0.159852,-0.15985 0.07643,0.191 0.06703,0.4192 -0.02089,0.50712 -0.08792,0.0879 -0.150453,-0.0683 -0.138964,-0.34727 z m 11.906251,0 c 0.0127,-0.30822 0.07539,-0.37092 0.15985,-0.15985 0.07643,0.191 0.06703,0.4192 -0.02088,0.50712 -0.08792,0.0879 -0.150453,-0.0683 -0.138965,-0.34727 z m 9.789587,-0.26458 c 0.0127,-0.30823 0.0754,-0.37092 0.15985,-0.15985 0.0764,0.19099 0.067,0.4192 -0.0209,0.50712 -0.0879,0.0879 -0.15045,-0.0684 -0.13896,-0.34727 z m 11.90625,0 c 0.0127,-0.30823 0.0754,-0.37092 0.15985,-0.15985 0.0764,0.19099 0.067,0.4192 -0.0209,0.50712 -0.0879,0.0879 -0.15045,-0.0684 -0.13896,-0.34727 z m -21.960421,-1.05833 c 0.0127,-0.30823 0.07539,-0.37092 0.159851,-0.15986 0.07643,0.191 0.06703,0.4192 -0.02088,0.50712 -0.08792,0.0879 -0.150452,-0.0683 -0.138964,-0.34726 z m 10.318751,-0.26459 c 0.0127,-0.30822 0.0754,-0.37092 0.15985,-0.15985 0.0764,0.191 0.067,0.4192 -0.0209,0.50712 -0.0879,0.0879 -0.15045,-0.0684 -0.13896,-0.34727 z m 11.37708,0 c 0.0127,-0.30822 0.0754,-0.37092 0.15985,-0.15985 0.0764,0.191 0.067,0.4192 -0.0209,0.50712 -0.0879,0.0879 -0.15046,-0.0684 -0.13897,-0.34727 z m -21.960414,-1.05833 c 0.0127,-0.30823 0.07539,-0.37092 0.159851,-0.15985 0.07643,0.19099 0.06703,0.4192 -0.02088,0.50712 -0.08792,0.0879 -0.150453,-0.0684 -0.138965,-0.34727 z m 21.431254,-1.32292 c 0.0127,-0.30822 0.0754,-0.37092 0.15985,-0.15985 0.0764,0.191 0.067,0.4192 -0.0209,0.50712 -0.0879,0.0879 -0.15045,-0.0683 -0.13896,-0.34727 z m -25.176336,-7.98159 -0.641432,-0.72761 0.727604,0.64143 c 0.400182,0.35279 0.727604,0.68021 0.727604,0.72761 0,0.2075 -0.214259,0.0386 -0.813776,-0.64143 z m -3.68414,0.0985 c 0,-0.0549 0.208359,-0.2633 0.46302,-0.46302 0.419646,-0.32911 0.429004,-0.31975 0.0999,0.0999 -0.345644,0.44073 -0.562917,0.58089 -0.562917,0.36313 z m 25.366246,-0.36313 c -0.3291,-0.41964 -0.31975,-0.429 0.0999,-0.0999 0.44073,0.34564 0.58089,0.56291 0.36312,0.56291 -0.0549,0 -0.2633,-0.20836 -0.46302,-0.46302 z m -6.18395,-1.124477 c 0.56838,-0.582084 1.09296,-1.058334 1.16572,-1.058334 0.0728,0 -0.33275,0.47625 -0.90114,1.058334 -0.56839,0.582083 -1.09297,1.058337 -1.16573,1.058337 -0.0728,0 0.33276,-0.476254 0.90115,-1.058337 z M 82.172024,99.237651 c 0.493655,-0.509323 0.957086,-0.926042 1.029846,-0.926042 0.07276,0 -0.271608,0.416719 -0.765263,0.926042 -0.493655,0.509323 -0.957086,0.926039 -1.029847,0.926039 -0.07276,0 0.271609,-0.416716 0.765264,-0.926039 z m 8.717007,-0.06615 -0.911799,-0.992187 0.992187,0.911798 c 0.545704,0.501489 0.992188,0.947978 0.992188,0.992188 0,0.20204 -0.223896,0.0117 -1.072576,-0.911799 z m 21.695829,0 -0.91179,-0.992187 0.99218,0.911798 c 0.54571,0.501489 0.99219,0.947978 0.99219,0.992188 0,0.20204 -0.2239,0.0117 -1.07258,-0.911799 z m -26.229112,0.546864 c 0.190994,-0.07643 0.419198,-0.06703 0.507119,0.02089 0.08792,0.08792 -0.06835,0.150453 -0.347266,0.138964 -0.308226,-0.01269 -0.370919,-0.07539 -0.159853,-0.159852 z m 21.960412,0 c 0.191,-0.07643 0.4192,-0.06703 0.50712,0.02089 0.0879,0.08792 -0.0683,0.150453 -0.34726,0.138964 -0.30823,-0.01269 -0.37092,-0.07539 -0.15986,-0.159852 z M 86.074628,97.066551 c 0.327422,-0.06306 0.863203,-0.06306 1.190625,0 0.327422,0.06306 0.05953,0.114662 -0.595313,0.114662 -0.654843,0 -0.922734,-0.0516 -0.595312,-0.114662 z m 21.695832,0 c 0.32742,-0.06306 0.8632,-0.06306 1.19063,0 0.32742,0.06306 0.0595,0.114662 -0.59532,0.114662 -0.65484,0 -0.92273,-0.0516 -0.59531,-0.114662 z"
         id="path26" />
    </g>
  </g>
</svg>
